<?xml version="1.0" encoding="UTF-8" standalone="no"?>
<!-- Created with Inkscape (http://www.inkscape.org/) -->

<svg
   version="1.1"
   id="svg1"
   width="622.10181"
   height="447.22433"
   viewBox="0 0 622.10181 447.22433"
   sodipodi:docname="incomplete_ratio_citeseer.svg"
   inkscape:version="1.3.2 (091e20e, 2023-11-25)"
   xmlns:inkscape="http://www.inkscape.org/namespaces/inkscape"
   xmlns:sodipodi="http://sodipodi.sourceforge.net/DTD/sodipodi-0.dtd"
   xmlns="http://www.w3.org/2000/svg"
   xmlns:svg="http://www.w3.org/2000/svg">
  <defs
     id="defs1">
    <clipPath
       clipPathUnits="userSpaceOnUse"
       id="clipPath13">
      <path
         d="m 101.80937,62.10625 h 357.12 v 266.112 h -357.12 z"
         id="path13" />
    </clipPath>
    <clipPath
       clipPathUnits="userSpaceOnUse"
       id="clipPath14">
      <path
         d="M -8.75,-8.75 H 8.75 V 8.75 H -8.75 Z"
         id="path14" />
    </clipPath>
    <clipPath
       clipPathUnits="userSpaceOnUse"
       id="clipPath16">
      <path
         d="m 101.80937,62.10625 h 357.12 v 266.112 h -357.12 z"
         transform="matrix(1.3333333,0,0,-1.3333333,0,447.22433)"
         id="path16" />
    </clipPath>
    <clipPath
       clipPathUnits="userSpaceOnUse"
       id="clipPath17">
      <path
         d="M -8.75,-8.75 H 8.75 V 8.75 H -8.75 Z"
         transform="translate(1.1363e-6)"
         id="path17" />
    </clipPath>
    <clipPath
       clipPathUnits="userSpaceOnUse"
       id="clipPath19">
      <path
         d="m 101.80937,62.10625 h 357.12 v 266.112 h -357.12 z"
         transform="matrix(1.3333333,0,0,-1.3333333,0,447.22433)"
         id="path19" />
    </clipPath>
    <clipPath
       clipPathUnits="userSpaceOnUse"
       id="clipPath20">
      <path
         d="M -8.75,-8.75 H 8.75 V 8.75 H -8.75 Z"
         transform="translate(2.4999e-6)"
         id="path20" />
    </clipPath>
    <clipPath
       clipPathUnits="userSpaceOnUse"
       id="clipPath22">
      <path
         d="m 101.80937,62.10625 h 357.12 v 266.112 h -357.12 z"
         transform="matrix(1.3333333,0,0,-1.3333333,0,447.22433)"
         id="path22" />
    </clipPath>
    <clipPath
       clipPathUnits="userSpaceOnUse"
       id="clipPath23">
      <path
         d="M -8.75,-8.75 H 8.75 V 8.75 H -8.75 Z"
         transform="translate(-3.6365002e-6)"
         id="path23" />
    </clipPath>
    <clipPath
       clipPathUnits="userSpaceOnUse"
       id="clipPath25">
      <path
         d="m 101.80937,62.10625 h 357.12 v 266.112 h -357.12 z"
         transform="matrix(1.3333333,0,0,-1.3333333,0,447.22433)"
         id="path25" />
    </clipPath>
    <clipPath
       clipPathUnits="userSpaceOnUse"
       id="clipPath26">
      <path
         d="M -8.75,-8.75 H 8.75 V 8.75 H -8.75 Z"
         transform="translate(-2.2729001e-6)"
         id="path26" />
    </clipPath>
    <clipPath
       clipPathUnits="userSpaceOnUse"
       id="clipPath28">
      <path
         d="m 101.80937,62.10625 h 357.12 v 266.112 h -357.12 z"
         transform="matrix(1.3333333,0,0,-1.3333333,0,447.22433)"
         id="path28" />
    </clipPath>
    <clipPath
       clipPathUnits="userSpaceOnUse"
       id="clipPath30">
      <path
         d="m 101.80937,62.10625 h 357.12 v 266.112 h -357.12 z"
         id="path30" />
    </clipPath>
    <clipPath
       clipPathUnits="userSpaceOnUse"
       id="clipPath31">
      <path
         d="M -8.75,-8.75 H 8.75 V 8.75 H -8.75 Z"
         id="path31" />
    </clipPath>
    <clipPath
       clipPathUnits="userSpaceOnUse"
       id="clipPath33">
      <path
         d="m 101.80937,62.10625 h 357.12 v 266.112 h -357.12 z"
         transform="matrix(1.3333333,0,0,-1.3333333,0,447.22433)"
         id="path33" />
    </clipPath>
    <clipPath
       clipPathUnits="userSpaceOnUse"
       id="clipPath34">
      <path
         d="M -8.75,-8.75 H 8.75 V 8.75 H -8.75 Z"
         transform="translate(1.1363e-6)"
         id="path34" />
    </clipPath>
    <clipPath
       clipPathUnits="userSpaceOnUse"
       id="clipPath36">
      <path
         d="m 101.80937,62.10625 h 357.12 v 266.112 h -357.12 z"
         transform="matrix(1.3333333,0,0,-1.3333333,0,447.22433)"
         id="path36" />
    </clipPath>
    <clipPath
       clipPathUnits="userSpaceOnUse"
       id="clipPath37">
      <path
         d="M -8.75,-8.75 H 8.75 V 8.75 H -8.75 Z"
         transform="translate(2.4999e-6)"
         id="path37" />
    </clipPath>
    <clipPath
       clipPathUnits="userSpaceOnUse"
       id="clipPath39">
      <path
         d="m 101.80937,62.10625 h 357.12 v 266.112 h -357.12 z"
         transform="matrix(1.3333333,0,0,-1.3333333,0,447.22433)"
         id="path39" />
    </clipPath>
    <clipPath
       clipPathUnits="userSpaceOnUse"
       id="clipPath40">
      <path
         d="M -8.75,-8.75 H 8.75 V 8.75 H -8.75 Z"
         transform="translate(-3.6365002e-6)"
         id="path40" />
    </clipPath>
    <clipPath
       clipPathUnits="userSpaceOnUse"
       id="clipPath42">
      <path
         d="m 101.80937,62.10625 h 357.12 v 266.112 h -357.12 z"
         transform="matrix(1.3333333,0,0,-1.3333333,0,447.22433)"
         id="path42" />
    </clipPath>
    <clipPath
       clipPathUnits="userSpaceOnUse"
       id="clipPath43">
      <path
         d="M -8.75,-8.75 H 8.75 V 8.75 H -8.75 Z"
         transform="translate(-2.2729001e-6)"
         id="path43" />
    </clipPath>
    <clipPath
       clipPathUnits="userSpaceOnUse"
       id="clipPath45">
      <path
         d="m 101.80937,62.10625 h 357.12 v 266.112 h -357.12 z"
         transform="matrix(1.3333333,0,0,-1.3333333,0,447.22433)"
         id="path45" />
    </clipPath>
    <clipPath
       clipPathUnits="userSpaceOnUse"
       id="clipPath47">
      <path
         d="m 101.80937,62.10625 h 357.12 v 266.112 h -357.12 z"
         id="path47" />
    </clipPath>
    <clipPath
       clipPathUnits="userSpaceOnUse"
       id="clipPath48">
      <path
         d="M -7.2855339,-7.2855339 H 7.2855339 V 7.2855339 H -7.2855339 Z"
         id="path48" />
    </clipPath>
    <clipPath
       clipPathUnits="userSpaceOnUse"
       id="clipPath50">
      <path
         d="m 101.80937,62.10625 h 357.12 v 266.112 h -357.12 z"
         transform="matrix(1.3333333,0,0,-1.3333333,0,447.22433)"
         id="path50" />
    </clipPath>
    <clipPath
       clipPathUnits="userSpaceOnUse"
       id="clipPath51">
      <path
         d="M -7.2855339,-7.2855339 H 7.2855339 V 7.2855339 H -7.2855339 Z"
         transform="translate(1.1363e-6)"
         id="path51" />
    </clipPath>
    <clipPath
       clipPathUnits="userSpaceOnUse"
       id="clipPath53">
      <path
         d="m 101.80937,62.10625 h 357.12 v 266.112 h -357.12 z"
         transform="matrix(1.3333333,0,0,-1.3333333,0,447.22433)"
         id="path53" />
    </clipPath>
    <clipPath
       clipPathUnits="userSpaceOnUse"
       id="clipPath54">
      <path
         d="M -7.2855339,-7.2855339 H 7.2855339 V 7.2855339 H -7.2855339 Z"
         transform="translate(2.4999e-6)"
         id="path54" />
    </clipPath>
    <clipPath
       clipPathUnits="userSpaceOnUse"
       id="clipPath56">
      <path
         d="m 101.80937,62.10625 h 357.12 v 266.112 h -357.12 z"
         transform="matrix(1.3333333,0,0,-1.3333333,0,447.22433)"
         id="path56" />
    </clipPath>
    <clipPath
       clipPathUnits="userSpaceOnUse"
       id="clipPath57">
      <path
         d="M -7.2855339,-7.2855339 H 7.2855339 V 7.2855339 H -7.2855339 Z"
         transform="translate(-3.6365002e-6)"
         id="path57" />
    </clipPath>
    <clipPath
       clipPathUnits="userSpaceOnUse"
       id="clipPath59">
      <path
         d="m 101.80937,62.10625 h 357.12 v 266.112 h -357.12 z"
         transform="matrix(1.3333333,0,0,-1.3333333,0,447.22433)"
         id="path59" />
    </clipPath>
    <clipPath
       clipPathUnits="userSpaceOnUse"
       id="clipPath60">
      <path
         d="M -7.2855339,-7.2855339 H 7.2855339 V 7.2855339 H -7.2855339 Z"
         transform="translate(-2.2729001e-6)"
         id="path60" />
    </clipPath>
    <clipPath
       clipPathUnits="userSpaceOnUse"
       id="clipPath62">
      <path
         d="m 101.80937,62.10625 h 357.12 v 266.112 h -357.12 z"
         transform="matrix(1.3333333,0,0,-1.3333333,0,447.22433)"
         id="path62" />
    </clipPath>
    <clipPath
       clipPathUnits="userSpaceOnUse"
       id="clipPath64">
      <path
         d="m 101.80937,62.10625 h 357.12 v 266.112 h -357.12 z"
         id="path64" />
    </clipPath>
    <clipPath
       clipPathUnits="userSpaceOnUse"
       id="clipPath65">
      <path
         d="M -8.75,-8.75 H 8.75 V 8.75 H -8.75 Z"
         id="path65" />
    </clipPath>
    <clipPath
       clipPathUnits="userSpaceOnUse"
       id="clipPath67">
      <path
         d="m 101.80937,62.10625 h 357.12 v 266.112 h -357.12 z"
         transform="matrix(1.3333333,0,0,-1.3333333,0,447.22433)"
         id="path67" />
    </clipPath>
    <clipPath
       clipPathUnits="userSpaceOnUse"
       id="clipPath68">
      <path
         d="M -8.75,-8.75 H 8.75 V 8.75 H -8.75 Z"
         transform="translate(1.1363e-6)"
         id="path68" />
    </clipPath>
    <clipPath
       clipPathUnits="userSpaceOnUse"
       id="clipPath70">
      <path
         d="m 101.80937,62.10625 h 357.12 v 266.112 h -357.12 z"
         transform="matrix(1.3333333,0,0,-1.3333333,0,447.22433)"
         id="path70" />
    </clipPath>
    <clipPath
       clipPathUnits="userSpaceOnUse"
       id="clipPath71">
      <path
         d="M -8.75,-8.75 H 8.75 V 8.75 H -8.75 Z"
         transform="translate(2.4999e-6)"
         id="path71" />
    </clipPath>
    <clipPath
       clipPathUnits="userSpaceOnUse"
       id="clipPath73">
      <path
         d="m 101.80937,62.10625 h 357.12 v 266.112 h -357.12 z"
         transform="matrix(1.3333333,0,0,-1.3333333,0,447.22433)"
         id="path73" />
    </clipPath>
    <clipPath
       clipPathUnits="userSpaceOnUse"
       id="clipPath74">
      <path
         d="M -8.75,-8.75 H 8.75 V 8.75 H -8.75 Z"
         transform="translate(-3.6365002e-6)"
         id="path74" />
    </clipPath>
    <clipPath
       clipPathUnits="userSpaceOnUse"
       id="clipPath76">
      <path
         d="m 101.80937,62.10625 h 357.12 v 266.112 h -357.12 z"
         transform="matrix(1.3333333,0,0,-1.3333333,0,447.22433)"
         id="path76" />
    </clipPath>
    <clipPath
       clipPathUnits="userSpaceOnUse"
       id="clipPath77">
      <path
         d="M -8.75,-8.75 H 8.75 V 8.75 H -8.75 Z"
         transform="translate(-2.2729001e-6)"
         id="path77" />
    </clipPath>
    <clipPath
       clipPathUnits="userSpaceOnUse"
       id="clipPath79">
      <path
         d="m 101.80937,62.10625 h 357.12 v 266.112 h -357.12 z"
         transform="matrix(1.3333333,0,0,-1.3333333,0,447.22433)"
         id="path79" />
    </clipPath>
    <clipPath
       clipPathUnits="userSpaceOnUse"
       id="clipPath81">
      <path
         d="m 101.80937,62.10625 h 357.12 v 266.112 h -357.12 z"
         id="path81" />
    </clipPath>
    <clipPath
       clipPathUnits="userSpaceOnUse"
       id="clipPath82">
      <path
         d="M -8.75,-8.75 H 8.75 V 8.75 H -8.75 Z"
         id="path82" />
    </clipPath>
    <clipPath
       clipPathUnits="userSpaceOnUse"
       id="clipPath84">
      <path
         d="m 101.80937,62.10625 h 357.12 v 266.112 h -357.12 z"
         transform="matrix(1.3333333,0,0,-1.3333333,0,447.22433)"
         id="path84" />
    </clipPath>
    <clipPath
       clipPathUnits="userSpaceOnUse"
       id="clipPath85">
      <path
         d="M -8.75,-8.75 H 8.75 V 8.75 H -8.75 Z"
         transform="translate(1.1363e-6)"
         id="path85" />
    </clipPath>
    <clipPath
       clipPathUnits="userSpaceOnUse"
       id="clipPath87">
      <path
         d="m 101.80937,62.10625 h 357.12 v 266.112 h -357.12 z"
         transform="matrix(1.3333333,0,0,-1.3333333,0,447.22433)"
         id="path87" />
    </clipPath>
    <clipPath
       clipPathUnits="userSpaceOnUse"
       id="clipPath88">
      <path
         d="M -8.75,-8.75 H 8.75 V 8.75 H -8.75 Z"
         transform="translate(2.4999e-6)"
         id="path88" />
    </clipPath>
    <clipPath
       clipPathUnits="userSpaceOnUse"
       id="clipPath90">
      <path
         d="m 101.80937,62.10625 h 357.12 v 266.112 h -357.12 z"
         transform="matrix(1.3333333,0,0,-1.3333333,0,447.22433)"
         id="path90" />
    </clipPath>
    <clipPath
       clipPathUnits="userSpaceOnUse"
       id="clipPath91">
      <path
         d="M -8.75,-8.75 H 8.75 V 8.75 H -8.75 Z"
         transform="translate(-3.6365002e-6)"
         id="path91" />
    </clipPath>
    <clipPath
       clipPathUnits="userSpaceOnUse"
       id="clipPath93">
      <path
         d="m 101.80937,62.10625 h 357.12 v 266.112 h -357.12 z"
         transform="matrix(1.3333333,0,0,-1.3333333,0,447.22433)"
         id="path93" />
    </clipPath>
    <clipPath
       clipPathUnits="userSpaceOnUse"
       id="clipPath94">
      <path
         d="M -8.75,-8.75 H 8.75 V 8.75 H -8.75 Z"
         transform="translate(-2.2729001e-6)"
         id="path94" />
    </clipPath>
    <clipPath
       clipPathUnits="userSpaceOnUse"
       id="clipPath96">
      <path
         d="m 101.80937,62.10625 h 357.12 v 266.112 h -357.12 z"
         transform="matrix(1.3333333,0,0,-1.3333333,0,447.22433)"
         id="path96" />
    </clipPath>
  </defs>
  <sodipodi:namedview
     id="namedview1"
     pagecolor="#ffffff"
     bordercolor="#000000"
     borderopacity="0.25"
     inkscape:showpageshadow="2"
     inkscape:pageopacity="0.0"
     inkscape:pagecheckerboard="0"
     inkscape:deskcolor="#d1d1d1"
     inkscape:zoom="1.4161669"
     inkscape:cx="311.0509"
     inkscape:cy="223.4906"
     inkscape:window-width="2560"
     inkscape:window-height="1316"
     inkscape:window-x="1440"
     inkscape:window-y="331"
     inkscape:window-maximized="0"
     inkscape:current-layer="g1">
    <inkscape:page
       x="0"
       y="0"
       inkscape:label="1"
       id="page1"
       width="622.10181"
       height="447.22433"
       margin="0"
       bleed="0" />
  </sodipodi:namedview>
  <g
     id="g1"
     inkscape:groupmode="layer"
     inkscape:label="1">
    <path
       id="path1"
       d="M 0,0 H 466.57633 V 335.41825 H 0 Z"
       style="fill:#ffffff;fill-opacity:1;fill-rule:nonzero;stroke:none"
       transform="matrix(1.3333333,0,0,-1.3333333,0,447.22433)" />
    <path
       id="path2"
       d="m 101.80937,62.10625 h 357.12 v 266.112 h -357.12 z"
       style="fill:#ffffff;fill-opacity:1;fill-rule:nonzero;stroke:none"
       transform="matrix(1.3333333,0,0,-1.3333333,0,447.22433)" />
    <text
       id="text2"
       xml:space="preserve"
       transform="matrix(1.3333333,0,0,1.3333333,135.14989,396.666)"><tspan
         style="font-variant:normal;font-weight:normal;font-size:24px;font-family:Arial;writing-mode:lr-tb;fill:#262626;fill-opacity:1;fill-rule:nonzero;stroke:none"
         x="0 13.344 20.016001"
         y="0"
         sodipodi:role="line"
         id="tspan2">0.1</tspan></text>
    <text
       id="text3"
       xml:space="preserve"
       transform="matrix(1.3333333,0,0,1.3333333,243.36807,396.666)"><tspan
         style="font-variant:normal;font-weight:normal;font-size:24px;font-family:Arial;writing-mode:lr-tb;fill:#262626;fill-opacity:1;fill-rule:nonzero;stroke:none"
         x="0 13.344 20.016001"
         y="0"
         sodipodi:role="line"
         id="tspan3">0.2</tspan></text>
    <text
       id="text4"
       xml:space="preserve"
       transform="matrix(1.3333333,0,0,1.3333333,351.58625,396.666)"><tspan
         style="font-variant:normal;font-weight:normal;font-size:24px;font-family:Arial;writing-mode:lr-tb;fill:#262626;fill-opacity:1;fill-rule:nonzero;stroke:none"
         x="0 13.344 20.016001"
         y="0"
         sodipodi:role="line"
         id="tspan4">0.3</tspan></text>
    <text
       id="text5"
       xml:space="preserve"
       transform="matrix(1.3333333,0,0,1.3333333,459.80443,396.666)"><tspan
         style="font-variant:normal;font-weight:normal;font-size:24px;font-family:Arial;writing-mode:lr-tb;fill:#262626;fill-opacity:1;fill-rule:nonzero;stroke:none"
         x="0 13.344 20.016001"
         y="0"
         sodipodi:role="line"
         id="tspan5">0.4</tspan></text>
    <text
       id="text6"
       xml:space="preserve"
       transform="matrix(1.3333333,0,0,1.3333333,568.02261,396.666)"><tspan
         style="font-variant:normal;font-weight:normal;font-size:24px;font-family:Arial;writing-mode:lr-tb;fill:#262626;fill-opacity:1;fill-rule:nonzero;stroke:none"
         x="0 13.344 20.016001"
         y="0"
         sodipodi:role="line"
         id="tspan6">0.5</tspan></text>
    <text
       id="text7"
       xml:space="preserve"
       transform="matrix(1.3333333,0,0,1.3333333,226.20083,431.27017)"><tspan
         style="font-variant:normal;font-weight:normal;font-size:24px;font-family:Arial;writing-mode:lr-tb;fill:#262626;fill-opacity:1;fill-rule:nonzero;stroke:none"
         x="0 6.6719999 20.016001 32.015999 45.360001 65.351997 78.695999 84.024002 97.367996 104.04 117.384 130.728 144.07201 156.07201 168.07201 174.744 182.73599 196.08 202.752 208.08"
         y="0"
         sodipodi:role="line"
         id="tspan7">Incompleteness ratio</tspan></text>
    <text
       id="text8"
       xml:space="preserve"
       transform="matrix(1.3333333,0,0,1.3333333,62.370833,359.74633)"><tspan
         style="font-variant:normal;font-weight:normal;font-size:24px;font-family:Arial;writing-mode:lr-tb;fill:#262626;fill-opacity:1;fill-rule:nonzero;stroke:none"
         x="0 13.344 26.688"
         y="0"
         sodipodi:role="line"
         id="tspan8">40%</tspan></text>
    <text
       id="text9"
       xml:space="preserve"
       transform="matrix(1.3333333,0,0,1.3333333,62.370833,251.50472)"><tspan
         style="font-variant:normal;font-weight:normal;font-size:24px;font-family:Arial;writing-mode:lr-tb;fill:#262626;fill-opacity:1;fill-rule:nonzero;stroke:none"
         x="0 13.344 26.688"
         y="0"
         sodipodi:role="line"
         id="tspan9">60%</tspan></text>
    <text
       id="text10"
       xml:space="preserve"
       transform="matrix(1.3333333,0,0,1.3333333,62.370833,143.26311)"><tspan
         style="font-variant:normal;font-weight:normal;font-size:24px;font-family:Arial;writing-mode:lr-tb;fill:#262626;fill-opacity:1;fill-rule:nonzero;stroke:none"
         x="0 13.344 26.688"
         y="0"
         sodipodi:role="line"
         id="tspan10">80%</tspan></text>
    <text
       id="text11"
       xml:space="preserve"
       transform="matrix(1.3333333,0,0,1.3333333,44.579167,35.021501)"><tspan
         style="font-variant:normal;font-weight:normal;font-size:24px;font-family:Arial;writing-mode:lr-tb;fill:#262626;fill-opacity:1;fill-rule:nonzero;stroke:none"
         x="0 13.344 26.688 40.032001"
         y="0"
         sodipodi:role="line"
         id="tspan11">100%</tspan></text>
    <text
       id="text12"
       xml:space="preserve"
       transform="matrix(0,-1.3333333,1.3333333,0,32.516667,355.37258)"><tspan
         style="font-variant:normal;font-weight:normal;font-size:24px;font-family:Arial;writing-mode:lr-tb;fill:#262626;fill-opacity:1;fill-rule:nonzero;stroke:none"
         x="0 13.773375 21.765375 35.109375 48.453377 55.125374 68.469376 81.813377 93.813377 99.141373 105.81338 111.14137 123.14137 136.48538 143.15738 156.50137 164.49338 177.83737 191.18138 204.52538 217.86937 223.19737 228.52538 233.85338 240.52538"
         y="0"
         sodipodi:role="line"
         id="tspan12">True positive probability</tspan></text>
    <path
       id="path12"
       d="m 118.0421,249.55366 81.16364,55.20322 81.16363,9.74175 81.16364,1.62362 h 81.16364"
       style="fill:none;stroke:#e41a1c;stroke-width:1.5;stroke-linecap:round;stroke-linejoin:round;stroke-miterlimit:10;stroke-dasharray:none;stroke-opacity:1"
       transform="matrix(1.3333333,0,0,-1.3333333,0,447.22433)"
       clip-path="url(#clipPath13)" />
    <g
       id="g15"
       clip-path="url(#clipPath16)">
      <path
         d="m 0,-5 c 1.326016,0 2.597899,0.526832 3.535534,1.464466 C 4.473168,-2.597899 5,-1.326016 5,0 5,1.326016 4.473168,2.597899 3.535534,3.535534 2.597899,4.473168 1.326016,5 0,5 -1.326016,5 -2.597899,4.473168 -3.535534,3.535534 -4.473168,2.597899 -5,1.326016 -5,0 -5,-1.326016 -4.473168,-2.597899 -3.535534,-3.535534 -2.597899,-4.473168 -1.326016,-5 0,-5 Z"
         style="fill:#e41a1c;fill-opacity:1;fill-rule:nonzero;stroke:#ffffff;stroke-width:0.75;stroke-linecap:butt;stroke-linejoin:round;stroke-miterlimit:10;stroke-dasharray:none;stroke-opacity:1"
         transform="matrix(1.3333333,0,0,-1.3333333,157.38947,114.48612)"
         clip-path="url(#clipPath14)"
         id="path15" />
    </g>
    <g
       id="g18"
       clip-path="url(#clipPath19)">
      <path
         d="m 0,-5 c 1.326016,0 2.597899,0.526832 3.535534,1.464466 C 4.473168,-2.597899 5,-1.326016 5,0 5,1.326016 4.473168,2.597899 3.535534,3.535534 2.597899,4.473168 1.326016,5 0,5 -1.326016,5 -2.597899,4.473168 -3.535534,3.535534 -4.473168,2.597899 -5,1.326016 -5,0 -5,-1.326016 -4.473168,-2.597899 -3.535534,-3.535534 -2.597899,-4.473168 -1.326016,-5 0,-5 Z"
         style="fill:#e41a1c;fill-opacity:1;fill-rule:nonzero;stroke:#ffffff;stroke-width:0.75;stroke-linecap:butt;stroke-linejoin:round;stroke-miterlimit:10;stroke-dasharray:none;stroke-opacity:1"
         transform="matrix(1.3333333,0,0,-1.3333333,265.60765,40.881826)"
         clip-path="url(#clipPath17)"
         id="path18" />
    </g>
    <g
       id="g21"
       clip-path="url(#clipPath22)">
      <path
         d="m 0,-5 c 1.326016,0 2.597899,0.526832 3.535534,1.464466 C 4.473168,-2.597899 5,-1.326016 5,0 5,1.326016 4.473168,2.597899 3.535534,3.535534 2.597899,4.473168 1.326016,5 0,5 -1.326016,5 -2.597899,4.473168 -3.535534,3.535534 -4.473168,2.597899 -5,1.326016 -5,0 -5,-1.326016 -4.473168,-2.597899 -3.535534,-3.535534 -2.597899,-4.473168 -1.326016,-5 0,-5 Z"
         style="fill:#e41a1c;fill-opacity:1;fill-rule:nonzero;stroke:#ffffff;stroke-width:0.75;stroke-linecap:butt;stroke-linejoin:round;stroke-miterlimit:10;stroke-dasharray:none;stroke-opacity:1"
         transform="matrix(1.3333333,0,0,-1.3333333,373.82583,27.892832)"
         clip-path="url(#clipPath20)"
         id="path21" />
    </g>
    <g
       id="g24"
       clip-path="url(#clipPath25)">
      <path
         d="m 0,-5 c 1.326016,0 2.597899,0.526832 3.535534,1.464466 C 4.473168,-2.597899 5,-1.326016 5,0 5,1.326016 4.473168,2.597899 3.535534,3.535534 2.597899,4.473168 1.326016,5 0,5 -1.326016,5 -2.597899,4.473168 -3.535534,3.535534 -4.473168,2.597899 -5,1.326016 -5,0 -5,-1.326016 -4.473168,-2.597899 -3.535534,-3.535534 -2.597899,-4.473168 -1.326016,-5 0,-5 Z"
         style="fill:#e41a1c;fill-opacity:1;fill-rule:nonzero;stroke:#ffffff;stroke-width:0.75;stroke-linecap:butt;stroke-linejoin:round;stroke-miterlimit:10;stroke-dasharray:none;stroke-opacity:1"
         transform="matrix(1.3333333,0,0,-1.3333333,482.04402,25.728)"
         clip-path="url(#clipPath23)"
         id="path24" />
    </g>
    <g
       id="g27"
       clip-path="url(#clipPath28)">
      <path
         d="m 0,-5 c 1.326016,0 2.597899,0.526832 3.535534,1.464466 C 4.473168,-2.597899 5,-1.326016 5,0 5,1.326016 4.473168,2.597899 3.535534,3.535534 2.597899,4.473168 1.326016,5 0,5 -1.326016,5 -2.597899,4.473168 -3.535534,3.535534 -4.473168,2.597899 -5,1.326016 -5,0 -5,-1.326016 -4.473168,-2.597899 -3.535534,-3.535534 -2.597899,-4.473168 -1.326016,-5 0,-5 Z"
         style="fill:#e41a1c;fill-opacity:1;fill-rule:nonzero;stroke:#ffffff;stroke-width:0.75;stroke-linecap:butt;stroke-linejoin:round;stroke-miterlimit:10;stroke-dasharray:none;stroke-opacity:1"
         transform="matrix(1.3333333,0,0,-1.3333333,590.2622,25.728)"
         clip-path="url(#clipPath26)"
         id="path27" />
    </g>
    <path
       id="path29"
       d="m 118.0421,100.18024 81.16364,92.54657 81.16363,40.59061 81.16364,30.84886 81.16364,8.11812"
       style="fill:none;stroke:#377eb8;stroke-width:1.5;stroke-linecap:round;stroke-linejoin:round;stroke-miterlimit:10;stroke-dasharray:none;stroke-opacity:1"
       transform="matrix(1.3333333,0,0,-1.3333333,0,447.22433)"
       clip-path="url(#clipPath30)" />
    <g
       id="g32"
       clip-path="url(#clipPath33)">
      <path
         d="M -2.5,-5 0,-2.5 2.5,-5 5,-2.5 2.5,0 5,2.5 2.5,5 0,2.5 -2.5,5 -5,2.5 -2.5,0 -5,-2.5 Z"
         style="fill:#377eb8;fill-opacity:1;fill-rule:nonzero;stroke:#ffffff;stroke-width:0.75;stroke-linecap:butt;stroke-linejoin:miter;stroke-miterlimit:10;stroke-dasharray:none;stroke-opacity:1"
         transform="matrix(1.3333333,0,0,-1.3333333,157.38947,313.65068)"
         clip-path="url(#clipPath31)"
         id="path32" />
    </g>
    <g
       id="g35"
       clip-path="url(#clipPath36)">
      <path
         d="M -2.5,-5 0,-2.5 2.5,-5 5,-2.5 2.5,0 5,2.5 2.5,5 0,2.5 -2.5,5 -5,2.5 -2.5,0 -5,-2.5 Z"
         style="fill:#377eb8;fill-opacity:1;fill-rule:nonzero;stroke:#ffffff;stroke-width:0.75;stroke-linecap:butt;stroke-linejoin:miter;stroke-miterlimit:10;stroke-dasharray:none;stroke-opacity:1"
         transform="matrix(1.3333333,0,0,-1.3333333,265.60765,190.25525)"
         clip-path="url(#clipPath34)"
         id="path35" />
    </g>
    <g
       id="g38"
       clip-path="url(#clipPath39)">
      <path
         d="M -2.5,-5 0,-2.5 2.5,-5 5,-2.5 2.5,0 5,2.5 2.5,5 0,2.5 -2.5,5 -5,2.5 -2.5,0 -5,-2.5 Z"
         style="fill:#377eb8;fill-opacity:1;fill-rule:nonzero;stroke:#ffffff;stroke-width:0.75;stroke-linecap:butt;stroke-linejoin:miter;stroke-miterlimit:10;stroke-dasharray:none;stroke-opacity:1"
         transform="matrix(1.3333333,0,0,-1.3333333,373.82583,136.13444)"
         clip-path="url(#clipPath37)"
         id="path38" />
    </g>
    <g
       id="g41"
       clip-path="url(#clipPath42)">
      <path
         d="M -2.5,-5 0,-2.5 2.5,-5 5,-2.5 2.5,0 5,2.5 2.5,5 0,2.5 -2.5,5 -5,2.5 -2.5,0 -5,-2.5 Z"
         style="fill:#377eb8;fill-opacity:1;fill-rule:nonzero;stroke:#ffffff;stroke-width:0.75;stroke-linecap:butt;stroke-linejoin:miter;stroke-miterlimit:10;stroke-dasharray:none;stroke-opacity:1"
         transform="matrix(1.3333333,0,0,-1.3333333,482.04402,95.002631)"
         clip-path="url(#clipPath40)"
         id="path41" />
    </g>
    <g
       id="g44"
       clip-path="url(#clipPath45)">
      <path
         d="M -2.5,-5 0,-2.5 2.5,-5 5,-2.5 2.5,0 5,2.5 2.5,5 0,2.5 -2.5,5 -5,2.5 -2.5,0 -5,-2.5 Z"
         style="fill:#377eb8;fill-opacity:1;fill-rule:nonzero;stroke:#ffffff;stroke-width:0.75;stroke-linecap:butt;stroke-linejoin:miter;stroke-miterlimit:10;stroke-dasharray:none;stroke-opacity:1"
         transform="matrix(1.3333333,0,0,-1.3333333,590.2622,84.17847)"
         clip-path="url(#clipPath43)"
         id="path44" />
    </g>
    <path
       id="path46"
       d="m 118.0421,127.78185 81.16364,89.29933 81.16363,27.60161 81.16364,17.85986 81.16364,25.97799"
       style="fill:none;stroke:#4daf4a;stroke-width:1.5;stroke-linecap:round;stroke-linejoin:round;stroke-miterlimit:10;stroke-dasharray:none;stroke-opacity:1"
       transform="matrix(1.3333333,0,0,-1.3333333,0,447.22433)"
       clip-path="url(#clipPath47)" />
    <g
       id="g49"
       clip-path="url(#clipPath50)">
      <path
         d="M -3.535534,3.535534 V -3.535534 H 3.535534 V 3.535534 Z"
         style="fill:#4daf4a;fill-opacity:1;fill-rule:nonzero;stroke:#ffffff;stroke-width:0.75;stroke-linecap:butt;stroke-linejoin:miter;stroke-miterlimit:10;stroke-dasharray:none;stroke-opacity:1"
         transform="matrix(1.3333333,0,0,-1.3333333,157.38947,276.84854)"
         clip-path="url(#clipPath48)"
         id="path49" />
    </g>
    <g
       id="g52"
       clip-path="url(#clipPath53)">
      <path
         d="M -3.535534,3.535534 V -3.535534 H 3.535534 V 3.535534 Z"
         style="fill:#4daf4a;fill-opacity:1;fill-rule:nonzero;stroke:#ffffff;stroke-width:0.75;stroke-linecap:butt;stroke-linejoin:miter;stroke-miterlimit:10;stroke-dasharray:none;stroke-opacity:1"
         transform="matrix(1.3333333,0,0,-1.3333333,265.60765,157.78277)"
         clip-path="url(#clipPath51)"
         id="path52" />
    </g>
    <g
       id="g55"
       clip-path="url(#clipPath56)">
      <path
         d="M -3.535534,3.535534 V -3.535534 H 3.535534 V 3.535534 Z"
         style="fill:#4daf4a;fill-opacity:1;fill-rule:nonzero;stroke:#ffffff;stroke-width:0.75;stroke-linecap:butt;stroke-linejoin:miter;stroke-miterlimit:10;stroke-dasharray:none;stroke-opacity:1"
         transform="matrix(1.3333333,0,0,-1.3333333,373.82583,120.98062)"
         clip-path="url(#clipPath54)"
         id="path55" />
    </g>
    <g
       id="g58"
       clip-path="url(#clipPath59)">
      <path
         d="M -3.535534,3.535534 V -3.535534 H 3.535534 V 3.535534 Z"
         style="fill:#4daf4a;fill-opacity:1;fill-rule:nonzero;stroke:#ffffff;stroke-width:0.75;stroke-linecap:butt;stroke-linejoin:miter;stroke-miterlimit:10;stroke-dasharray:none;stroke-opacity:1"
         transform="matrix(1.3333333,0,0,-1.3333333,482.04402,97.167463)"
         clip-path="url(#clipPath57)"
         id="path58" />
    </g>
    <g
       id="g61"
       clip-path="url(#clipPath62)">
      <path
         d="M -3.535534,3.535534 V -3.535534 H 3.535534 V 3.535534 Z"
         style="fill:#4daf4a;fill-opacity:1;fill-rule:nonzero;stroke:#ffffff;stroke-width:0.75;stroke-linecap:butt;stroke-linejoin:miter;stroke-miterlimit:10;stroke-dasharray:none;stroke-opacity:1"
         transform="matrix(1.3333333,0,0,-1.3333333,590.2622,62.530148)"
         clip-path="url(#clipPath60)"
         id="path61" />
    </g>
    <path
       id="path63"
       d="m 118.0421,74.20225 81.16364,112.03007 81.16363,45.46147 81.16364,32.47249 81.16364,19.48349"
       style="fill:none;stroke:#984ea3;stroke-width:1.5;stroke-linecap:round;stroke-linejoin:round;stroke-miterlimit:10;stroke-dasharray:none;stroke-opacity:1"
       transform="matrix(1.3333333,0,0,-1.3333333,0,447.22433)"
       clip-path="url(#clipPath64)" />
    <g
       id="g66"
       clip-path="url(#clipPath67)">
      <path
         d="m -1.666667,-5 h 3.333334 v 3.333333 H 5 V 1.666667 H 1.666667 V 5 H -1.666667 V 1.666667 H -5 v -3.333334 h 3.333333 z"
         style="fill:#984ea3;fill-opacity:1;fill-rule:nonzero;stroke:#ffffff;stroke-width:0.75;stroke-linecap:butt;stroke-linejoin:miter;stroke-miterlimit:10;stroke-dasharray:none;stroke-opacity:1"
         transform="matrix(1.3333333,0,0,-1.3333333,157.38947,348.288)"
         clip-path="url(#clipPath65)"
         id="path66" />
    </g>
    <g
       id="g69"
       clip-path="url(#clipPath70)">
      <path
         d="m -1.666667,-5 h 3.333334 v 3.333333 H 5 V 1.666667 H 1.666667 V 5 H -1.666667 V 1.666667 H -5 v -3.333334 h 3.333333 z"
         style="fill:#984ea3;fill-opacity:1;fill-rule:nonzero;stroke:#ffffff;stroke-width:0.75;stroke-linecap:butt;stroke-linejoin:miter;stroke-miterlimit:10;stroke-dasharray:none;stroke-opacity:1"
         transform="matrix(1.3333333,0,0,-1.3333333,265.60765,198.91458)"
         clip-path="url(#clipPath68)"
         id="path69" />
    </g>
    <g
       id="g72"
       clip-path="url(#clipPath73)">
      <path
         d="m -1.666667,-5 h 3.333334 v 3.333333 H 5 V 1.666667 H 1.666667 V 5 H -1.666667 V 1.666667 H -5 v -3.333334 h 3.333333 z"
         style="fill:#984ea3;fill-opacity:1;fill-rule:nonzero;stroke:#ffffff;stroke-width:0.75;stroke-linecap:butt;stroke-linejoin:miter;stroke-miterlimit:10;stroke-dasharray:none;stroke-opacity:1"
         transform="matrix(1.3333333,0,0,-1.3333333,373.82583,138.29928)"
         clip-path="url(#clipPath71)"
         id="path72" />
    </g>
    <g
       id="g75"
       clip-path="url(#clipPath76)">
      <path
         d="m -1.666667,-5 h 3.333334 v 3.333333 H 5 V 1.666667 H 1.666667 V 5 H -1.666667 V 1.666667 H -5 v -3.333334 h 3.333333 z"
         style="fill:#984ea3;fill-opacity:1;fill-rule:nonzero;stroke:#ffffff;stroke-width:0.75;stroke-linecap:butt;stroke-linejoin:miter;stroke-miterlimit:10;stroke-dasharray:none;stroke-opacity:1"
         transform="matrix(1.3333333,0,0,-1.3333333,482.04402,95.002631)"
         clip-path="url(#clipPath74)"
         id="path75" />
    </g>
    <g
       id="g78"
       clip-path="url(#clipPath79)">
      <path
         d="m -1.666667,-5 h 3.333334 v 3.333333 H 5 V 1.666667 H 1.666667 V 5 H -1.666667 V 1.666667 H -5 v -3.333334 h 3.333333 z"
         style="fill:#984ea3;fill-opacity:1;fill-rule:nonzero;stroke:#ffffff;stroke-width:0.75;stroke-linecap:butt;stroke-linejoin:miter;stroke-miterlimit:10;stroke-dasharray:none;stroke-opacity:1"
         transform="matrix(1.3333333,0,0,-1.3333333,590.2622,69.024644)"
         clip-path="url(#clipPath77)"
         id="path78" />
    </g>
    <path
       id="path80"
       d="m 118.0421,83.943995 81.16364,34.096105 81.16363,4.87088 81.16364,55.20322 81.16364,8.11812"
       style="fill:none;stroke:#ff7f00;stroke-width:1.5;stroke-linecap:round;stroke-linejoin:round;stroke-miterlimit:10;stroke-dasharray:none;stroke-opacity:1"
       transform="matrix(1.3333333,0,0,-1.3333333,0,447.22433)"
       clip-path="url(#clipPath81)" />
    <g
       id="g83"
       clip-path="url(#clipPath84)">
      <path
         d="M 0,5 -5,0 0,-5 5,0 Z"
         style="fill:#ff7f00;fill-opacity:1;fill-rule:nonzero;stroke:#ffffff;stroke-width:0.75;stroke-linecap:butt;stroke-linejoin:miter;stroke-miterlimit:10;stroke-dasharray:none;stroke-opacity:1"
         transform="matrix(1.3333333,0,0,-1.3333333,157.38947,335.29901)"
         clip-path="url(#clipPath82)"
         id="path83" />
    </g>
    <g
       id="g86"
       clip-path="url(#clipPath87)">
      <path
         d="M 0,5 -5,0 0,-5 5,0 Z"
         style="fill:#ff7f00;fill-opacity:1;fill-rule:nonzero;stroke:#ffffff;stroke-width:0.75;stroke-linecap:butt;stroke-linejoin:miter;stroke-miterlimit:10;stroke-dasharray:none;stroke-opacity:1"
         transform="matrix(1.3333333,0,0,-1.3333333,265.60765,289.83753)"
         clip-path="url(#clipPath85)"
         id="path86" />
    </g>
    <g
       id="g89"
       clip-path="url(#clipPath90)">
      <path
         d="M 0,5 -5,0 0,-5 5,0 Z"
         style="fill:#ff7f00;fill-opacity:1;fill-rule:nonzero;stroke:#ffffff;stroke-width:0.75;stroke-linecap:butt;stroke-linejoin:miter;stroke-miterlimit:10;stroke-dasharray:none;stroke-opacity:1"
         transform="matrix(1.3333333,0,0,-1.3333333,373.82583,283.34303)"
         clip-path="url(#clipPath88)"
         id="path89" />
    </g>
    <g
       id="g92"
       clip-path="url(#clipPath93)">
      <path
         d="M 0,5 -5,0 0,-5 5,0 Z"
         style="fill:#ff7f00;fill-opacity:1;fill-rule:nonzero;stroke:#ffffff;stroke-width:0.75;stroke-linecap:butt;stroke-linejoin:miter;stroke-miterlimit:10;stroke-dasharray:none;stroke-opacity:1"
         transform="matrix(1.3333333,0,0,-1.3333333,482.04402,209.73874)"
         clip-path="url(#clipPath91)"
         id="path92" />
    </g>
    <g
       id="g95"
       clip-path="url(#clipPath96)">
      <path
         d="M 0,5 -5,0 0,-5 5,0 Z"
         style="fill:#ff7f00;fill-opacity:1;fill-rule:nonzero;stroke:#ffffff;stroke-width:0.75;stroke-linecap:butt;stroke-linejoin:miter;stroke-miterlimit:10;stroke-dasharray:none;stroke-opacity:1"
         transform="matrix(1.3333333,0,0,-1.3333333,590.2622,198.91458)"
         clip-path="url(#clipPath94)"
         id="path95" />
    </g>
    <path
       id="path97"
       d="m 101.80937,62.10625 v 266.112"
       style="fill:none;stroke:#808080;stroke-width:0.8;stroke-linecap:square;stroke-linejoin:miter;stroke-miterlimit:10;stroke-dasharray:none;stroke-opacity:1"
       transform="matrix(1.3333333,0,0,-1.3333333,0,447.22433)" />
    <path
       id="path98"
       d="m 458.92937,62.10625 v 266.112"
       style="fill:none;stroke:#808080;stroke-width:0.8;stroke-linecap:square;stroke-linejoin:miter;stroke-miterlimit:10;stroke-dasharray:none;stroke-opacity:1"
       transform="matrix(1.3333333,0,0,-1.3333333,0,447.22433)" />
    <path
       id="path99"
       d="m 101.80937,62.10625 h 357.12"
       style="fill:none;stroke:#808080;stroke-width:0.8;stroke-linecap:square;stroke-linejoin:miter;stroke-miterlimit:10;stroke-dasharray:none;stroke-opacity:1"
       transform="matrix(1.3333333,0,0,-1.3333333,0,447.22433)" />
    <path
       id="path100"
       d="m 101.80937,328.21825 h 357.12"
       style="fill:none;stroke:#808080;stroke-width:0.8;stroke-linecap:square;stroke-linejoin:miter;stroke-miterlimit:10;stroke-dasharray:none;stroke-opacity:1"
       transform="matrix(1.3333333,0,0,-1.3333333,0,447.22433)" />
  </g>
</svg>
